<svg width="144" height="144" viewBox="0 0 144 144" fill="none" xmlns="http://www.w3.org/2000/svg">
<circle cx="72" cy="72" r="72" fill="black"/>
<path d="M72.5491 118.421C72.2601 118.421 71.9625 118.37 71.6819 118.276L36.7469 106.515C35.6332 106.14 34.8935 105.101 34.8935 103.925C34.8935 102.748 35.6502 101.709 36.7554 101.342L46.8814 97.9844C48.3097 97.5157 49.8486 98.2827 50.3162 99.7145C50.7838 101.146 50.0102 102.689 48.5903 103.157L46.2097 103.95L72.5321 112.813L98.1489 103.907L95.5643 102.996C94.1444 102.493 93.4047 100.942 93.9063 99.5185C94.408 98.0952 95.9553 97.3538 97.3752 97.8566L107.297 101.359C108.385 101.743 109.117 102.783 109.117 103.933C109.117 105.084 108.377 106.123 107.289 106.498L73.4419 118.268C73.1528 118.37 72.8552 118.421 72.5491 118.421Z" fill="white"/>
<path d="M72.0043 101.19C51.0466 101.19 34 84.1024 34 63.0948C34 42.0873 51.0466 25 72.0043 25C72.5229 25 73.033 25.017 73.5431 25.0426C74.895 25.0937 76.0002 26.142 76.1363 27.4885C76.9184 35.0819 83.0059 40.9538 90.6153 41.4481C92.0181 41.5418 93.1234 42.6924 93.1574 44.0985C93.3615 52.1095 99.5084 58.6376 107.475 59.2768C108.852 59.3876 109.932 60.5211 109.974 61.9102L109.983 62.1488C109.992 62.4642 110 62.788 110 63.1033C110.008 84.1024 92.9619 101.19 72.0043 101.19ZM71.12 30.4628C53.5718 30.9315 39.4413 45.3939 39.4413 63.0948C39.4413 81.094 54.0479 95.7353 72.0043 95.7353C89.5355 95.7353 103.879 81.7758 104.542 64.3561C95.8015 62.592 89.1189 55.4759 87.9116 46.6041C79.5626 45.1127 72.948 38.755 71.12 30.4628Z" fill="white"/>
<path d="M62.0223 51.2144C64.45 51.2144 66.4179 49.2418 66.4179 46.8084C66.4179 44.375 64.45 42.4023 62.0223 42.4023C59.5947 42.4023 57.6268 44.375 57.6268 46.8084C57.6268 49.2418 59.5947 51.2144 62.0223 51.2144Z" fill="white"/>
<path d="M71.97 67.3902C74.3976 67.3902 76.3656 65.4176 76.3656 62.9842C76.3656 60.5508 74.3976 58.5781 71.97 58.5781C69.5424 58.5781 67.5745 60.5508 67.5745 62.9842C67.5745 65.4176 69.5424 67.3902 71.97 67.3902Z" fill="white"/>
<path d="M72.5138 86.3101C74.9414 86.3101 76.9094 84.3375 76.9094 81.9041C76.9094 79.4707 74.9414 77.498 72.5138 77.498C70.0862 77.498 68.1183 79.4707 68.1183 81.9041C68.1183 84.3375 70.0862 86.3101 72.5138 86.3101Z" fill="white"/>
<path d="M53.2317 70.109C55.6593 70.109 57.6273 68.1363 57.6273 65.7029C57.6273 63.2695 55.6593 61.2969 53.2317 61.2969C50.8041 61.2969 48.8361 63.2695 48.8361 65.7029C48.8361 68.1363 50.8041 70.109 53.2317 70.109Z" fill="white"/>
<path d="M89.1027 75.5621C91.5303 75.5621 93.4983 73.5894 93.4983 71.156C93.4983 68.7227 91.5303 66.75 89.1027 66.75C86.6751 66.75 84.7071 68.7227 84.7071 71.156C84.7071 73.5894 86.6751 75.5621 89.1027 75.5621Z" fill="white"/>
</svg>
