<svg width="247" height="66" viewBox="0 0 247 66" fill="none" xmlns="http://www.w3.org/2000/svg">
<path fill-rule="evenodd" clip-rule="evenodd" d="M202.722 1C201.953 -0.333332 200.028 -0.333334 199.258 0.999999L192.907 12H14C6.26801 12 0 18.268 0 26V52C0 59.732 6.26801 66 14 66H233C240.732 66 247 59.732 247 52V26C247 18.268 240.732 12 233 12H209.073L202.722 1Z" fill="#222222"/>
<path d="M32.08 35.32C32.08 36.1067 32.2 36.8933 32.44 37.68C32.68 38.4533 33.0067 39.1867 33.42 39.88C33.8333 40.56 34.3133 41.1733 34.86 41.72C35.42 42.2533 36.0133 42.68 36.64 43L35.62 44.3C35.14 44.0467 34.68 43.7333 34.24 43.36C33.8133 42.9733 33.4133 42.54 33.04 42.06C32.6667 41.58 32.3267 41.06 32.02 40.5C31.7267 39.9267 31.48 39.3333 31.28 38.72C30.8933 40.04 30.3067 41.2267 29.52 42.28C28.7333 43.32 27.8333 44.1133 26.82 44.66L25.84 43.34C26.48 43.0067 27.08 42.56 27.64 42C28.2133 41.4267 28.7067 40.78 29.12 40.06C29.5333 39.34 29.86 38.5733 30.1 37.76C30.34 36.9467 30.46 36.1333 30.46 35.32V32.1H32.08V35.32ZM42.82 39.18H39.86V48.48H38.22V30.56H39.86V37.82H42.82V39.18ZM52.1584 47.2C53.5718 47.2 54.6718 47.0333 55.4584 46.7C56.2451 46.3667 56.6384 45.8933 56.6384 45.28C56.6384 44.6667 56.2451 44.1933 55.4584 43.86C54.6718 43.5267 53.5718 43.36 52.1584 43.36C50.7451 43.36 49.6451 43.5267 48.8584 43.86C48.0718 44.1933 47.6784 44.6667 47.6784 45.28C47.6784 45.8933 48.0718 46.3667 48.8584 46.7C49.6451 47.0333 50.7451 47.2 52.1584 47.2ZM52.1584 42.08C54.0918 42.08 55.5984 42.36 56.6784 42.92C57.7584 43.4667 58.2984 44.2533 58.2984 45.28C58.2984 46.3067 57.7584 47.0933 56.6784 47.64C55.5984 48.1867 54.0918 48.46 52.1584 48.46C50.2384 48.46 48.7318 48.1867 47.6384 47.64C46.5584 47.0933 46.0184 46.3067 46.0184 45.28C46.0184 44.2533 46.5584 43.4667 47.6384 42.92C48.7318 42.36 50.2384 42.08 52.1584 42.08ZM49.6784 39.42H54.6584V37.32C54.2851 37.3867 53.8918 37.44 53.4784 37.48C53.0651 37.5067 52.6251 37.52 52.1584 37.52C51.7051 37.52 51.2718 37.5067 50.8584 37.48C50.4451 37.44 50.0518 37.3867 49.6784 37.32V39.42ZM47.5384 34.2C47.5384 34.84 47.9451 35.3467 48.7584 35.72C49.5851 36.08 50.7184 36.26 52.1584 36.26C53.5984 36.26 54.7251 36.08 55.5384 35.72C56.3651 35.3467 56.7784 34.84 56.7784 34.2C56.7784 33.5467 56.3651 33.04 55.5384 32.68C54.7251 32.32 53.5984 32.14 52.1584 32.14C50.7184 32.14 49.5851 32.32 48.7584 32.68C47.9451 33.04 47.5384 33.5467 47.5384 34.2ZM60.2784 39.42V40.74H44.0384V39.42H48.0584V36.9C47.3384 36.6067 46.7918 36.24 46.4184 35.8C46.0451 35.3467 45.8584 34.8133 45.8584 34.2C45.8584 33.68 46.0051 33.2133 46.2984 32.8C46.5918 32.3867 47.0118 32.04 47.5584 31.76C48.1051 31.4667 48.7651 31.2467 49.5384 31.1C50.3118 30.94 51.1851 30.86 52.1584 30.86C53.1318 30.86 54.0051 30.94 54.7784 31.1C55.5651 31.2467 56.2251 31.4667 56.7584 31.76C57.3051 32.04 57.7251 32.3867 58.0184 32.8C58.3118 33.2133 58.4584 33.68 58.4584 34.2C58.4584 34.8 58.2651 35.3267 57.8784 35.78C57.5051 36.2333 56.9718 36.6 56.2784 36.88V39.42H60.2784ZM73.5695 35.66H68.4895V38.62H73.5695V35.66ZM75.1695 39.94H66.8695V31.68H68.4895V34.38H73.5695V31.68H75.1695V39.94ZM74.3495 47.18C75.6829 47.18 76.7229 47 77.4695 46.64C78.2295 46.28 78.6095 45.78 78.6095 45.14C78.6095 44.5 78.2295 44.0067 77.4695 43.66C76.7229 43.3 75.6829 43.12 74.3495 43.12C73.0029 43.12 71.9495 43.3 71.1895 43.66C70.4429 44.0067 70.0695 44.5 70.0695 45.14C70.0695 45.78 70.4429 46.28 71.1895 46.64C71.9495 47 73.0029 47.18 74.3495 47.18ZM74.3495 41.8C75.2562 41.8 76.0695 41.8733 76.7895 42.02C77.5229 42.1667 78.1429 42.3867 78.6495 42.68C79.1695 42.96 79.5629 43.3067 79.8295 43.72C80.1095 44.1333 80.2495 44.6067 80.2495 45.14C80.2495 45.6733 80.1095 46.1467 79.8295 46.56C79.5629 46.9733 79.1695 47.32 78.6495 47.6C78.1429 47.8933 77.5229 48.1133 76.7895 48.26C76.0695 48.4067 75.2562 48.48 74.3495 48.48C73.4295 48.48 72.6029 48.4067 71.8695 48.26C71.1495 48.1133 70.5295 47.8933 70.0095 47.6C69.5029 47.32 69.1095 46.9733 68.8295 46.56C68.5629 46.1467 68.4295 45.6733 68.4295 45.14C68.4295 44.6067 68.5629 44.1333 68.8295 43.72C69.1095 43.3067 69.5029 42.96 70.0095 42.68C70.5295 42.3867 71.1495 42.1667 71.8695 42.02C72.6029 41.8733 73.4295 41.8 74.3495 41.8ZM82.7095 35.06V36.42H80.0495V41.34H78.4095V30.54H80.0495V35.06H82.7095ZM97.268 44.66H89.028V46.9H97.268V44.66ZM97.268 41.22H98.888V48.22H87.408V41.22H89.028V43.38H97.268V41.22ZM91.488 35.5H86.648V38.34H91.488V35.5ZM98.908 30.56V40.36H97.248V36.3H93.108V39.68H85.028V31.48H86.648V34.22H91.488V31.48H93.108V34.96H97.248V30.56H98.908ZM116.806 30.54V48.52H115.166V30.54H116.806ZM107.346 31.92C108.013 31.92 108.626 32.0667 109.186 32.36C109.746 32.6533 110.226 33.0733 110.626 33.62C111.026 34.1667 111.34 34.8267 111.566 35.6C111.793 36.36 111.906 37.22 111.906 38.18C111.906 39.14 111.793 40.0067 111.566 40.78C111.34 41.54 111.026 42.1933 110.626 42.74C110.226 43.2867 109.746 43.7067 109.186 44C108.626 44.2933 108.013 44.44 107.346 44.44C106.68 44.44 106.066 44.2933 105.506 44C104.946 43.7067 104.466 43.2867 104.066 42.74C103.666 42.1933 103.353 41.54 103.126 40.78C102.9 40.0067 102.786 39.14 102.786 38.18C102.786 37.22 102.9 36.36 103.126 35.6C103.353 34.8267 103.666 34.1667 104.066 33.62C104.466 33.0733 104.946 32.6533 105.506 32.36C106.066 32.0667 106.68 31.92 107.346 31.92ZM107.346 33.4C106.906 33.4 106.5 33.5133 106.126 33.74C105.766 33.9667 105.453 34.2867 105.186 34.7C104.92 35.1133 104.713 35.62 104.566 36.22C104.42 36.8067 104.346 37.46 104.346 38.18C104.346 38.9133 104.42 39.5733 104.566 40.16C104.713 40.7467 104.92 41.2533 105.186 41.68C105.453 42.0933 105.766 42.4133 106.126 42.64C106.5 42.8667 106.906 42.98 107.346 42.98C107.786 42.98 108.186 42.8667 108.546 42.64C108.906 42.4133 109.22 42.0933 109.486 41.68C109.753 41.2533 109.96 40.7467 110.106 40.16C110.253 39.5733 110.326 38.9133 110.326 38.18C110.326 37.46 110.253 36.8067 110.106 36.22C109.96 35.62 109.753 35.1133 109.486 34.7C109.22 34.2867 108.906 33.9667 108.546 33.74C108.186 33.5133 107.786 33.4 107.346 33.4ZM136.857 45.14C136.857 44.5 136.451 44.0133 135.637 43.68C134.837 43.3333 133.731 43.16 132.317 43.16C130.864 43.16 129.731 43.3333 128.917 43.68C128.117 44.0133 127.717 44.5 127.717 45.14C127.717 45.78 128.117 46.2733 128.917 46.62C129.731 46.9667 130.864 47.14 132.317 47.14C133.731 47.14 134.837 46.9667 135.637 46.62C136.451 46.2733 136.857 45.78 136.857 45.14ZM133.137 39.04V41.86C134.817 41.94 136.131 42.26 137.077 42.82C138.024 43.38 138.497 44.1533 138.497 45.14C138.497 45.6733 138.351 46.1467 138.057 46.56C137.777 46.9733 137.371 47.32 136.837 47.6C136.317 47.88 135.671 48.0933 134.897 48.24C134.137 48.3867 133.277 48.46 132.317 48.46C130.357 48.46 128.824 48.1733 127.717 47.6C126.624 47.0267 126.077 46.2067 126.077 45.14C126.077 44.1533 126.551 43.38 127.497 42.82C128.444 42.26 129.771 41.94 131.477 41.86V39.04H124.197V37.72H136.257C136.511 36.64 136.657 35.6933 136.697 34.88C136.737 34.0667 136.757 33.32 136.757 32.64H126.277V31.3H138.377V32.6C138.377 33.28 138.357 34.0333 138.317 34.86C138.277 35.6867 138.144 36.64 137.917 37.72H140.457V39.04H133.137ZM154.816 43.3H145.796V46.9H154.816V43.3ZM151.136 39V42H156.436V48.22H144.196V42H149.476V39H142.176V37.66H154.276C154.503 36.5933 154.636 35.66 154.676 34.86C154.716 34.06 154.736 33.3333 154.736 32.68H144.216V31.34H156.356V32.64C156.356 33.3067 156.336 34.0467 156.296 34.86C156.269 35.6733 156.143 36.6067 155.916 37.66H158.476V39H151.136ZM165.454 43.12C165.868 43.12 166.241 43.0533 166.574 42.92C166.921 42.7733 167.221 42.58 167.474 42.34C167.728 42.1 167.921 41.8133 168.054 41.48C168.201 41.1333 168.274 40.76 168.274 40.36C168.274 39.96 168.201 39.5933 168.054 39.26C167.921 38.9133 167.728 38.62 167.474 38.38C167.221 38.1267 166.921 37.9333 166.574 37.8C166.241 37.6533 165.868 37.58 165.454 37.58C165.054 37.58 164.681 37.6533 164.334 37.8C163.988 37.9333 163.688 38.1267 163.434 38.38C163.194 38.62 163.001 38.9133 162.854 39.26C162.721 39.5933 162.654 39.96 162.654 40.36C162.654 40.76 162.721 41.1333 162.854 41.48C163.001 41.8133 163.194 42.1 163.434 42.34C163.688 42.58 163.988 42.7733 164.334 42.92C164.681 43.0533 165.054 43.12 165.454 43.12ZM165.454 36.22C166.094 36.22 166.681 36.3267 167.214 36.54C167.748 36.74 168.208 37.0267 168.594 37.4C168.994 37.76 169.301 38.1933 169.514 38.7C169.728 39.2067 169.834 39.76 169.834 40.36C169.834 40.9733 169.728 41.5333 169.514 42.04C169.301 42.5467 168.994 42.98 168.594 43.34C168.208 43.7 167.748 43.98 167.214 44.18C166.681 44.38 166.094 44.48 165.454 44.48C164.828 44.48 164.248 44.38 163.714 44.18C163.181 43.98 162.721 43.7 162.334 43.34C161.948 42.98 161.648 42.5467 161.434 42.04C161.221 41.5333 161.114 40.9733 161.114 40.36C161.114 39.76 161.221 39.2067 161.434 38.7C161.648 38.1933 161.948 37.76 162.334 37.4C162.721 37.0267 163.181 36.74 163.714 36.54C164.248 36.3267 164.828 36.22 165.454 36.22ZM166.254 33.42H170.674V34.74H160.094V33.42H164.614V30.76H166.254V33.42ZM176.954 39.3H174.014V48.48H172.374V30.56H174.014V37.92H176.954V39.3ZM180.593 42.64C181.393 42.64 182.139 42.6333 182.833 42.62C183.526 42.5933 184.199 42.56 184.853 42.52C185.506 42.4667 186.139 42.4067 186.753 42.34C187.379 42.26 188.019 42.16 188.673 42.04L188.853 43.4C188.173 43.5333 187.506 43.64 186.853 43.72C186.199 43.8 185.533 43.8667 184.853 43.92C184.173 43.96 183.466 43.9933 182.733 44.02C181.999 44.0333 181.213 44.04 180.373 44.04H178.953V32.26H187.293V33.62H180.593V42.64ZM194.953 38.98H191.993V48.52H190.353V30.54H191.993V37.62H194.953V38.98ZM203.591 33.42H198.631V39.18H203.591V33.42ZM205.191 35.04V37.54H209.311V35.04H205.191ZM205.191 40.48H197.011V32.12H205.191V33.7H209.311V30.56H210.971V43.64H209.311V38.88H205.191V40.48ZM211.391 46.74V48.08H199.431V42.48H201.071V46.74H211.391ZM217.11 43.08C217.07 42.3333 217.11 41.7133 217.23 41.22C217.363 40.7133 217.536 40.2867 217.75 39.94C217.976 39.5933 218.223 39.2933 218.49 39.04C218.756 38.7733 219.01 38.5 219.25 38.22C219.49 37.94 219.69 37.62 219.85 37.26C220.023 36.8867 220.116 36.42 220.13 35.86C220.143 35.5267 220.096 35.2067 219.99 34.9C219.896 34.58 219.75 34.3067 219.55 34.08C219.363 33.8533 219.13 33.6733 218.85 33.54C218.57 33.3933 218.25 33.32 217.89 33.32C217.636 33.32 217.376 33.3667 217.11 33.46C216.843 33.54 216.59 33.6933 216.35 33.92C216.123 34.1333 215.93 34.4267 215.77 34.8C215.61 35.16 215.51 35.62 215.47 36.18H213.93C213.983 35.2867 214.15 34.56 214.43 34C214.723 33.4267 215.07 32.9733 215.47 32.64C215.87 32.3067 216.296 32.08 216.75 31.96C217.216 31.84 217.663 31.78 218.09 31.78C218.65 31.78 219.156 31.8867 219.61 32.1C220.063 32.3133 220.45 32.6 220.77 32.96C221.09 33.3067 221.33 33.72 221.49 34.2C221.663 34.68 221.75 35.1933 221.75 35.74C221.75 36.3667 221.663 36.9 221.49 37.34C221.33 37.7667 221.123 38.1467 220.87 38.48C220.63 38.8133 220.363 39.12 220.07 39.4C219.79 39.68 219.53 39.9867 219.29 40.32C219.063 40.6533 218.883 41.04 218.75 41.48C218.616 41.92 218.57 42.4533 218.61 43.08H217.11ZM217.83 47.26C217.47 47.26 217.156 47.1333 216.89 46.88C216.636 46.6267 216.51 46.2933 216.51 45.88C216.51 45.4667 216.636 45.1267 216.89 44.86C217.156 44.5933 217.47 44.46 217.83 44.46C218.203 44.46 218.516 44.5933 218.77 44.86C219.036 45.1267 219.17 45.4667 219.17 45.88C219.17 46.2933 219.036 46.6267 218.77 46.88C218.516 47.1333 218.203 47.26 217.83 47.26Z" fill="white"/>
</svg>
