<svg width="34" height="34" viewBox="0 0 34 34" fill="none" xmlns="http://www.w3.org/2000/svg">
<path d="M13.8797 26.8863C6.6878 26.8863 0.866211 21.056 0.866211 13.8728C0.866211 6.68969 6.69653 0.859375 13.8797 0.859375C21.0628 0.859375 26.8931 6.68969 26.8931 13.8728C26.8931 21.056 21.0716 26.8776 13.8797 26.8863ZM13.8797 3.61743C8.22393 3.61743 3.63299 8.20836 3.63299 13.8641C3.63299 19.5199 8.22393 24.1108 13.8797 24.1108C19.5354 24.1108 24.1264 19.5199 24.1264 13.8641C24.1264 8.20836 19.5354 3.62615 13.8797 3.61743Z" fill="#FF7134"/>
<path d="M32.1646 33.5289C31.7981 33.5289 31.4402 33.3806 31.1871 33.1274L21.1324 23.0728C20.5913 22.5316 20.5913 21.6501 21.1324 21.109C21.6736 20.5678 22.5551 20.5678 23.0962 21.109L33.1509 31.1636C33.6833 31.7048 33.6833 32.5776 33.1509 33.1274C32.8803 33.3893 32.5312 33.5289 32.1646 33.5289Z" fill="#FF7134"/>
</svg>
