<svg width="28" height="34" viewBox="0 0 28 34" fill="none" xmlns="http://www.w3.org/2000/svg">
<path d="M23.5799 28.0736H4.50049C2.45813 28.0736 0.799805 26.4152 0.799805 24.3729C0.799805 23.6397 1.018 22.9153 1.43695 22.3043L2.83343 20.2358C3.20001 19.6947 3.39202 19.0663 3.38329 18.4117V11.8395C3.29601 6.07024 7.77348 1.26111 13.534 0.929443C19.4167 0.658875 24.4091 5.20617 24.6796 11.0889C24.6884 11.2547 24.6884 11.4205 24.6884 11.5863V18.4117C24.6884 19.0575 24.8804 19.6947 25.2382 20.2358L26.6347 22.3043C27.7781 23.9976 27.333 26.3018 25.6397 27.4451C25.0375 27.8554 24.3218 28.0736 23.5799 28.0736ZM14.0402 3.70495H13.6562C9.37944 3.97552 6.07152 7.56273 6.1588 11.8482V18.4204C6.1588 19.6248 5.80095 20.7944 5.12889 21.7894L3.73242 23.8579C3.53167 24.146 3.51422 24.5125 3.68005 24.818C3.83716 25.1235 4.15137 25.3155 4.50049 25.3068H23.5799C23.929 25.3155 24.2432 25.1235 24.4003 24.818C24.5662 24.5125 24.5487 24.146 24.348 23.8579L22.9515 21.7894C22.2794 20.7944 21.9216 19.6161 21.9216 18.4204V11.5951C21.9216 7.23107 18.3955 3.70495 14.0402 3.70495Z" fill="#999999"/>
<path d="M14.0404 33.6177C10.2176 33.6177 7.11914 30.5192 7.11914 26.6963C7.11914 25.9283 7.73883 25.3086 8.50689 25.3086C9.27496 25.3086 9.89464 25.9283 9.89464 26.6963C9.89464 28.9918 11.7537 30.8509 14.0492 30.8509C16.3446 30.8509 18.2037 28.9918 18.2037 26.6963C18.2037 25.9283 18.8234 25.3086 19.5915 25.3086C20.3595 25.3086 20.9792 25.9283 20.9792 26.6963C20.9618 30.5105 17.8633 33.6089 14.0404 33.6177Z" fill="#999999"/>
</svg>
