<svg width="34" height="34" viewBox="0 0 34 34" fill="none" xmlns="http://www.w3.org/2000/svg">
<path d="M17.205 33.5449C8.18026 33.5449 0.866211 26.2308 0.866211 17.206C0.866211 8.18126 8.18026 0.867188 17.205 0.867188C26.2298 0.867188 33.5438 8.18126 33.5438 17.206C33.5351 26.2308 26.2298 33.5361 17.205 33.5449ZM17.205 3.63397C9.70766 3.63397 3.63298 9.70866 3.63298 17.206C3.63298 24.7034 9.70766 30.7781 17.205 30.7781C24.7024 30.7781 30.7771 24.7034 30.7771 17.206C30.7683 9.71739 24.6937 3.6427 17.205 3.63397Z" fill="#999999"/>
<path d="M17.2052 12.0549C18.1211 12.0549 18.8636 11.3125 18.8636 10.3966C18.8636 9.48074 18.1211 8.73828 17.2052 8.73828C16.2894 8.73828 15.5469 9.48074 15.5469 10.3966C15.5469 11.3125 16.2894 12.0549 17.2052 12.0549Z" fill="#999999"/>
<path d="M17.0573 13.9648H17.354C17.9912 13.9648 18.5149 14.4885 18.5149 15.1257V24.5083C18.5149 25.1454 17.9912 25.6691 17.354 25.6691H17.0573C16.4202 25.6691 15.8965 25.1454 15.8965 24.5083V15.1344C15.8965 14.4885 16.4202 13.9648 17.0573 13.9648Z" fill="#999999"/>
</svg>
