<svg width="34" height="34" viewBox="0 0 34 34" fill="none" xmlns="http://www.w3.org/2000/svg">
<path d="M17.2051 33.5449C8.18029 33.5449 0.866211 26.2308 0.866211 17.206C0.866211 8.18126 8.18029 0.867188 17.2051 0.867188C26.2298 0.867188 33.5439 8.18126 33.5439 17.206C33.5352 26.2308 26.2298 33.5361 17.2051 33.5449ZM17.2051 3.63397C9.70769 3.63397 3.633 9.70866 3.633 17.206C3.633 24.7034 9.70769 30.7781 17.2051 30.7781C24.7024 30.7781 30.7771 24.7034 30.7771 17.206C30.7684 9.71739 24.6937 3.6427 17.2051 3.63397Z" fill="#999999"/>
<path d="M25.0082 29.5051C23.5419 25.1934 18.8637 22.8892 14.5521 24.3468C12.1257 25.1673 10.223 27.0787 9.39379 29.5051L6.77539 28.6148C8.73047 22.8543 14.9885 19.7821 20.7489 21.7371C23.987 22.8369 26.5269 25.3767 27.6266 28.6148L25.0082 29.5051Z" fill="#999999"/>
<path d="M17.2051 19.7384C13.8972 19.7384 11.209 17.0589 11.209 13.7422C11.209 10.4256 13.8885 7.74609 17.2051 7.74609C20.5218 7.74609 23.2013 10.4256 23.2013 13.7422C23.1925 17.0502 20.513 19.7384 17.2051 19.7384ZM17.2051 10.5216C15.4246 10.5216 13.9845 11.9617 13.9845 13.7422C13.9845 15.5228 15.4246 16.9629 17.2051 16.9629C18.9856 16.9629 20.4258 15.5228 20.4258 13.7422C20.4258 11.9705 18.9856 10.5216 17.2051 10.5216Z" fill="#999999"/>
</svg>
