<svg width="70" height="87" viewBox="0 0 70 87" fill="none" xmlns="http://www.w3.org/2000/svg">
<path d="M35.5056 86.0465C35.2394 86.0465 34.9653 85.9994 34.7069 85.9131L2.52988 75.0808C1.50404 74.7354 0.822754 73.7777 0.822754 72.6945C0.822754 71.6113 1.5197 70.6536 2.53771 70.3161L11.8643 67.2234C13.1798 66.7917 14.5972 67.4981 15.0279 68.8168C15.4586 70.1356 14.746 71.5563 13.4383 71.988L11.2456 72.7181L35.4899 80.8815L59.0843 72.6788L56.7037 71.8389C55.396 71.3758 54.7147 69.9472 55.1767 68.6363C55.6387 67.3254 57.0639 66.6425 58.3717 67.1057L67.5103 70.3318C68.5126 70.685 69.1861 71.6427 69.1861 72.7024C69.1861 73.762 68.5048 74.7197 67.5025 75.0651L36.3278 85.9052C36.0616 85.9994 35.7875 86.0465 35.5056 86.0465Z" fill="black"/>
<path d="M35.0039 70.1747C15.7009 70.1747 0 54.4364 0 35.0873C0 15.7383 15.7009 0 35.0039 0C35.4816 0 35.9514 0.015699 36.4213 0.0392476C37.6664 0.0863447 38.6844 1.05183 38.8097 2.29206C39.5301 9.28598 45.137 14.6943 52.1456 15.1496C53.4377 15.2359 54.4558 16.2956 54.4871 17.5908C54.675 24.9693 60.3367 30.982 67.6742 31.5707C68.9428 31.6728 69.9374 32.7168 69.9765 33.9963L69.9843 34.216C69.9922 34.5065 70 34.8047 70 35.0952C70.0078 54.4364 54.307 70.1747 35.0039 70.1747ZM34.1895 5.03154C18.0266 5.46326 5.01175 18.7839 5.01175 35.0873C5.01175 51.6655 18.4652 65.151 35.0039 65.151C51.1511 65.151 64.3618 52.2935 64.9726 36.2491C56.9225 34.6242 50.7674 28.0699 49.6554 19.8985C41.9655 18.5249 35.8731 12.6691 34.1895 5.03154Z" fill="black"/>
<path d="M25.81 24.1451C28.046 24.1451 29.8586 22.3282 29.8586 20.0869C29.8586 17.8456 28.046 16.0287 25.81 16.0287C23.5741 16.0287 21.7615 17.8456 21.7615 20.0869C21.7615 22.3282 23.5741 24.1451 25.81 24.1451Z" fill="black"/>
<path d="M34.9726 39.0436C37.2086 39.0436 39.0212 37.2267 39.0212 34.9854C39.0212 32.7442 37.2086 30.9272 34.9726 30.9272C32.7367 30.9272 30.9241 32.7442 30.9241 34.9854C30.9241 37.2267 32.7367 39.0436 34.9726 39.0436Z" fill="black"/>
<path d="M35.4734 56.4693C37.7093 56.4693 39.5219 54.6524 39.5219 52.4111C39.5219 50.1698 37.7093 48.3529 35.4734 48.3529C33.2374 48.3529 31.4248 50.1698 31.4248 52.4111C31.4248 54.6524 33.2374 56.4693 35.4734 56.4693Z" fill="black"/>
<path d="M17.7133 41.5476C19.9493 41.5476 21.7619 39.7306 21.7619 37.4893C21.7619 35.2481 19.9493 33.4312 17.7133 33.4312C15.4774 33.4312 13.6648 35.2481 13.6648 37.4893C13.6648 39.7306 15.4774 41.5476 17.7133 41.5476Z" fill="black"/>
<path d="M50.7527 46.5712C52.9886 46.5712 54.8012 44.7543 54.8012 42.513C54.8012 40.2717 52.9886 38.4548 50.7527 38.4548C48.5167 38.4548 46.7041 40.2717 46.7041 42.513C46.7041 44.7543 48.5167 46.5712 50.7527 46.5712Z" fill="black"/>
</svg>
